<svg width="235" height="360" viewBox="0 0 235 360" fill="none" xmlns="http://www.w3.org/2000/svg">
<path d="M0.322949 134.799C1.72795 142.577 8.10295 150.136 20.2449 164.617C20.4939 164.913 21.2489 165.527 22.0989 166.203C23.3319 167.181 24.7649 168.285 25.1479 168.727C29.8899 166.133 29.5069 164.942 31.2549 162.703C31.2549 162.703 31.0639 162.433 30.7869 162.021C30.2209 161.192 29.2959 159.784 28.8599 158.874C28.8489 158.851 28.839 158.829 28.826 158.806C27.061 155.153 21.5129 147.092 17.0519 133.049C16.3669 130.897 16.9329 128.543 18.5279 126.94C20.4349 125.022 23.1949 122.156 26.0869 118.847L26.0929 118.843C27.8429 116.84 29.6419 114.677 31.3299 112.464C32.7419 110.614 34.0729 108.73 35.2379 106.876C36.6459 104.633 37.8039 102.432 38.5469 100.395L32.1249 81.1001L21.6589 95.2491L18.4989 99.5171L18.1269 100.021L13.5379 106.226L3.29295 120.075C0.481946 124.433 -0.602051 129.696 0.322949 134.799Z" fill="#003E59"/>
<path opacity="0.2" d="M29.4958 165.358L31.3318 162.988C30.7658 162.159 29.2968 159.784 28.8608 158.874C28.8498 158.851 28.8398 158.829 28.8268 158.806C27.0618 155.153 21.5138 147.092 17.0528 133.049C16.3678 130.897 16.9338 128.543 18.5288 126.94C20.4358 125.022 23.1958 122.156 26.0878 118.847L26.0938 118.843C27.8438 116.84 29.6428 114.677 31.3308 112.464C32.7428 110.614 34.0738 108.73 35.2388 106.876L35.6608 106.192C35.6608 106.192 18.4188 118.622 12.4968 128.41C6.57576 138.197 29.4958 165.358 29.4958 165.358Z" fill="black"/>
<path d="M125.247 134.799C123.841 142.577 117.467 150.136 105.325 164.617C105.076 164.913 104.321 165.527 103.471 166.203C102.238 167.181 100.804 168.285 100.422 168.727C95.68 166.133 96.0629 164.942 94.3149 162.703C94.3149 162.703 94.5059 162.433 94.7829 162.021C95.3489 161.192 96.2739 159.784 96.7099 158.874C96.7209 158.851 96.7309 158.829 96.7439 158.806C98.5089 155.153 104.057 147.092 108.518 133.049C109.203 130.897 108.637 128.543 107.042 126.94C105.135 125.022 102.375 122.156 99.4829 118.847L99.4769 118.843C97.7269 116.84 95.9279 114.677 94.2399 112.464C92.8279 110.614 91.4969 108.73 90.3319 106.876C88.9239 104.633 87.7649 102.432 87.0229 100.395L93.4449 81.1001L103.911 95.2491L107.071 99.5171L107.443 100.021L112.032 106.226L122.277 120.075C125.088 124.433 126.172 129.696 125.247 134.799Z" fill="#003E59"/>
<path opacity="0.2" d="M96.0742 165.358L94.2382 162.988C94.8042 162.159 96.2732 159.784 96.7092 158.874C96.7202 158.851 96.7302 158.829 96.7432 158.806C98.5082 155.153 104.056 147.092 108.517 133.049C109.202 130.897 108.636 128.543 107.041 126.94C105.134 125.022 102.374 122.156 99.4822 118.847L99.4762 118.843C97.7262 116.84 95.9272 114.677 94.2392 112.464C92.8272 110.614 91.4962 108.73 90.3312 106.876L89.9092 106.192C89.9092 106.192 107.151 118.622 113.073 128.41C118.994 138.197 96.0742 165.358 96.0742 165.358Z" fill="black"/>
<path d="M90.2519 251.178L90.1149 257.428L89.2329 297.424L89.0879 303.981L77.4299 305.204L76.5349 297.424L74.8509 282.786C73.9259 280.123 73.1889 277.574 72.6049 275.161C68.8619 259.699 71.4099 249.712 71.4099 249.712L62.7849 199.093H59.6169L50.9919 249.712C50.9919 249.712 53.9359 261.248 48.8479 278.715C48.8479 278.719 48.8459 278.724 48.8459 278.728C48.4619 280.047 48.0309 281.402 47.5509 282.786L45.8669 297.424L44.9719 305.204L33.3139 303.981L33.1679 297.424L32.1489 251.178L32.1529 251.126V251.115L32.1639 250.878L36.3109 173.075L36.4669 170.162L36.6149 167.401L36.6259 167.179H85.7719L85.7909 167.544L85.9369 170.273L86.0869 173.075L90.2449 251.1L90.2519 251.178Z" fill="#003E59"/>
<path d="M93.4499 81.0931L93.0039 86.1141L92.8939 87.3541L90.2969 116.507L90.2459 117.06V117.062L89.8579 121.424L89.6729 123.512C89.6729 123.514 89.6729 123.514 89.6729 123.514L89.4019 126.534V126.536L87.1159 152.202L86.4879 159.248L86.3079 161.273L85.7819 167.179H36.6279L36.3989 162.744L36.3169 161.184L35.8499 152.202L34.4739 125.731L34.3039 122.468L34.1589 119.691L33.8829 114.383L32.5399 88.6031L32.1499 81.0921L32.8249 80.8961C33.0699 80.8241 33.3129 80.7511 33.5579 80.6811C34.2539 80.4801 34.9499 80.2861 35.6499 80.1021C37.6369 79.5721 39.6359 79.1021 41.6469 78.6941C42.3589 78.5491 43.0739 78.4091 43.7909 78.2811C44.9749 78.0641 46.1639 77.8721 47.3549 77.6951C47.4109 77.6881 47.4669 77.6761 47.5259 77.6691C48.9199 77.4661 50.3189 77.2931 51.7229 77.1481C55.3079 76.7771 58.9109 76.5901 62.5219 76.5901C65.4409 76.5901 68.3529 76.7111 71.2559 76.9541C71.4259 76.9681 71.5989 76.9821 71.7699 76.9981C72.9589 77.1031 74.1449 77.2291 75.3289 77.3761C76.6999 77.5421 78.0659 77.7401 79.4279 77.9651C80.1449 78.0821 80.8619 78.2051 81.5769 78.3391C83.6059 78.7171 85.6259 79.1541 87.6349 79.6521H87.6369C87.6699 79.6571 87.7049 79.6661 87.7369 79.6751L89.7449 80.1751L93.4499 81.0931Z" fill="#003E59"/>
<path opacity="0.2" d="M45.8679 297.424L44.9729 305.204L33.3159 303.981L33.1699 297.424H45.8679Z" fill="black"/>
<path opacity="0.2" d="M89.2327 297.424L89.0877 303.981L77.4297 305.204L76.5347 297.424H89.2327Z" fill="black"/>
<path opacity="0.2" d="M90.2521 251.178L90.1151 257.428L79.3701 252.164C84.2341 249.863 87.9281 250.276 90.2481 251.1L90.2521 251.178Z" fill="black"/>
<path opacity="0.2" d="M32.1509 250.961L32.2879 257.211L43.0329 251.947C38.1689 249.646 34.4749 250.059 32.1549 250.882L32.1509 250.961Z" fill="black"/>
<path opacity="0.2" d="M74.8517 282.786L72.6057 275.161C68.8627 259.699 71.4107 249.712 71.4107 249.712L62.7857 199.093H59.6187L50.9937 249.712C50.9937 249.712 53.9377 261.248 48.8497 278.715C51.7627 266.175 48.4287 250.231 48.4287 250.231L56.6477 197.056C55.8987 196.229 55.0897 194.598 54.4747 192.856C54.4747 192.856 59.3277 197.635 68.3897 193.204C68.3897 193.204 68.5267 194.523 65.7717 197.49L73.8837 248.617C73.8837 248.617 71.3297 264.961 74.8517 282.786Z" fill="black"/>
<path d="M85.7938 167.544L85.9398 170.273C69.4488 171.985 52.9588 171.948 36.4698 170.162L36.6179 167.401L36.6288 167.179L36.3988 162.745L36.3188 161.185C53.1278 163.066 69.8969 163.14 86.3079 161.274L85.7819 167.179H85.7758L85.7938 167.544Z" fill="#001A2E"/>
<path d="M71.5926 72.4111C71.4466 77.4611 68.2146 81.8681 63.6676 82.9001C63.5136 82.9351 63.3596 82.9671 63.2036 82.9951C62.7276 83.0841 62.2376 83.1381 61.7426 83.1531H61.6936C61.1986 83.1381 60.7086 83.0851 60.2326 82.9951C60.0776 82.9671 59.9236 82.9361 59.7706 82.9011C55.2116 81.8661 51.9916 77.4391 51.8446 72.3751C51.8286 71.8221 51.8006 71.2801 51.7656 70.7681C51.6316 68.7421 51.3936 67.1791 51.3936 67.1791L61.7176 68.4581L72.0416 67.1791C72.0416 67.1791 71.7326 69.2201 71.6206 71.6601C71.6096 71.9071 71.5996 72.1581 71.5926 72.4111Z" fill="#F7A67F"/>
<path d="M72.0426 65.7741C72.0426 65.7741 71.7336 67.8151 71.6216 70.2551C69.7726 72.9871 66.7876 75.3021 61.9726 75.4121C56.6376 75.2901 53.5496 72.4631 51.7656 69.3631C51.6316 67.3371 51.3936 65.7741 51.3936 65.7741L61.7176 67.0531L72.0426 65.7741Z" fill="#F48066"/>
<path d="M75.7089 43.8631V56.4091C75.7089 59.8751 74.8819 63.3041 73.2139 66.3421C71.1829 70.0431 67.6909 73.9161 61.9729 73.9161C56.9709 73.7611 53.6679 70.7641 51.5579 67.5631C49.3439 64.2061 48.2339 60.2411 48.2339 56.2191V43.8631C48.1669 32.0341 55.0229 30.8561 59.0739 31.1901C61.0029 31.3491 62.9419 31.3491 64.8719 31.1901C68.9229 30.8561 75.7789 32.0341 75.7089 43.8631Z" fill="#F7A67F"/>
<path d="M48.4958 46.3211C48.4958 46.3211 49.0908 43.2911 45.4208 43.8651C43.4218 44.1771 43.9328 48.9991 44.8258 50.9831C45.7188 52.9671 44.8268 59.3901 48.4958 58.6581V46.3211Z" fill="#F7A67F"/>
<path d="M45.4087 47.0161C45.4087 47.0161 48.3417 45.7271 47.4947 54.5541C47.4947 54.5541 47.4417 48.2061 45.4087 47.0161Z" fill="#F48066"/>
<path d="M75.1499 46.3211C75.1499 46.3211 74.5549 43.2911 78.2249 43.8651C80.2239 44.1771 79.7129 48.9991 78.8199 50.9831C77.9269 52.9671 78.8189 59.3901 75.1499 58.6581V46.3211Z" fill="#F7A67F"/>
<path d="M78.2371 47.0161C78.2371 47.0161 75.3041 45.7271 76.1511 54.5541C76.1511 54.5541 76.2041 48.2061 78.2371 47.0161Z" fill="#F48066"/>
<path d="M57.4745 51.1161C57.3855 51.7301 56.8155 52.1551 56.2015 52.0661C55.5875 51.9771 55.1625 51.4071 55.2515 50.7931C55.3405 50.1791 55.9105 49.7541 56.5245 49.8431C57.1385 49.9321 57.5635 50.5021 57.4745 51.1161Z" fill="#2C2A40"/>
<path d="M59.6846 46.8771C59.6846 46.8771 54.1036 43.2761 51.7266 48.0231C51.7266 48.0231 54.6086 45.9011 58.5016 47.6311C59.0506 47.8741 59.6696 47.4761 59.6846 46.8771Z" fill="#381E0A"/>
<path d="M64.9678 46.8771C64.9678 46.8771 70.5488 43.2761 72.9258 48.0231C72.9258 48.0231 70.0438 45.9011 66.1508 47.6311C65.6018 47.8741 64.9828 47.4761 64.9678 46.8771Z" fill="#381E0A"/>
<path d="M67.1768 51.1161C67.2658 51.7301 67.8358 52.1551 68.4498 52.0661C69.0638 51.9771 69.4888 51.4071 69.3998 50.7931C69.3108 50.1791 68.7408 49.7541 68.1268 49.8431C67.5138 49.9321 67.0878 50.5021 67.1768 51.1161Z" fill="#2C2A40"/>
<path d="M58.8477 56.8841C58.8477 56.8841 59.4417 58.2231 61.9717 58.2231C64.5017 58.2231 65.3567 56.8841 65.3567 56.8841C65.3567 56.8841 64.7617 59.2641 62.1017 59.3761C59.4427 59.4881 58.8477 56.8841 58.8477 56.8841Z" fill="#F48066"/>
<path d="M54.7148 62.0561C55.4278 65.5021 58.4798 68.0921 62.1368 68.0921C65.7938 68.0921 68.8458 65.5021 69.5588 62.0561H54.7148Z" fill="white"/>
<path d="M71.5429 73.1131L71.3609 75.6981L71.2569 77.1781L70.9329 82.0811C70.9329 82.0811 67.3609 84.6231 62.5379 84.9051C62.2539 84.9251 61.9619 84.9331 61.6689 84.9331C61.4259 84.9331 61.1869 84.9291 60.9539 84.9201C54.1409 84.6681 51.7949 80.8571 51.7949 80.8571V73.1121C51.7949 73.1121 54.1389 77.6031 60.9539 77.7551C61.0709 77.7571 61.1909 77.7591 61.3119 77.7591C61.7359 77.7591 62.1439 77.7421 62.5369 77.7111C68.5589 77.2401 71.3529 73.3831 71.5309 73.1251C71.5399 73.1171 71.5429 73.1131 71.5429 73.1131Z" fill="#003E59"/>
<path d="M58.5879 68.5461C58.5879 68.5461 61.8619 70.5011 65.3579 68.5461C65.3579 68.5461 62.1369 72.0771 58.5879 68.5461Z" fill="#F48066"/>
<path opacity="0.2" d="M71.5319 73.1261L71.3599 75.6981C71.3599 75.6981 69.8429 79.8431 61.6939 79.8431C53.5469 79.8431 51.7949 75.6981 51.7949 75.6981V73.1131C51.7949 73.1131 54.1389 77.6041 60.9539 77.7561C61.0709 77.7581 61.1909 77.7601 61.3119 77.7601C61.7359 77.7601 62.1439 77.7431 62.5369 77.7121C68.5599 77.2411 71.3539 73.3851 71.5319 73.1261Z" fill="black"/>
<path d="M49.381 36.7231C49.381 36.7231 52.104 39.0291 50.616 43.8651C49.736 46.7261 49.759 49.0751 49.924 50.5171C50.019 51.3481 49.054 51.9331 48.218 51.9331L48.215 51.7941L48.235 44.6911C48.235 44.6911 45.964 36.6461 49.381 36.7231Z" fill="#001A2E"/>
<path d="M74.605 36.7231C74.605 36.7231 71.882 39.0291 73.37 43.8651C74.25 46.7261 74.227 49.0751 74.062 50.5171C73.967 51.3481 75.162 52.2691 75.998 52.2691L76.042 51.9331L75.948 43.9081C75.948 43.9081 78.022 36.6461 74.605 36.7231Z" fill="#001A2E"/>
<path d="M89.9091 222.443L89.8371 222.471C89.7261 222.512 89.613 222.547 89.498 222.578L88.6291 222.808L87.5601 200.666C87.9751 200.666 88.3751 200.736 88.7531 200.864C90.3061 201.388 91.475 202.913 91.619 204.785L92.6051 217.833C92.7591 219.886 91.6361 221.769 89.9091 222.443Z" fill="#003E59"/>
<path opacity="0.2" d="M89.9091 222.443L89.8371 222.471C89.7261 222.512 89.613 222.547 89.498 222.578L88.6291 222.808L87.5601 200.666C87.9751 200.666 88.3751 200.736 88.7531 200.864L89.9091 222.443Z" fill="black"/>
<path d="M32.569 222.443L32.641 222.471C32.752 222.512 32.865 222.547 32.98 222.578L33.849 222.808L34.918 200.666C34.503 200.666 34.103 200.736 33.725 200.864C32.172 201.388 31.003 202.913 30.859 204.785L29.873 217.833C29.719 219.886 30.842 221.769 32.569 222.443Z" fill="#003E59"/>
<path opacity="0.2" d="M32.5688 222.443L32.6408 222.471C32.7518 222.512 32.8649 222.547 32.9799 222.578L33.8488 222.808L34.9178 200.666C34.5028 200.666 34.1028 200.736 33.7248 200.864L32.5688 222.443Z" fill="black"/>
<path d="M61.6717 49.3631C61.6717 49.6521 61.4427 49.8811 61.1537 49.8811H60.6247C60.5927 53.3591 57.7677 56.1661 54.2857 56.1661C54.1147 56.1661 53.9427 56.1591 53.7747 56.1451C52.5817 56.0491 51.4817 55.6241 50.5677 54.9561C50.1677 54.6701 49.8067 54.3351 49.4857 53.9601C49.2177 53.6491 48.9787 53.3141 48.7747 52.9531C48.2607 52.0461 47.9637 50.9991 47.9537 49.8821H47.4247C47.1357 49.8821 46.9067 49.6531 46.9067 49.3641C46.9067 49.0781 47.1347 48.8461 47.4247 48.8461H61.1527C61.4437 48.8451 61.6717 49.0771 61.6717 49.3631Z" fill="#182632"/>
<path d="M53.7369 49.7131L49.4869 53.9591C49.2189 53.6481 48.9799 53.3131 48.7759 52.9521L52.0369 49.6921L53.7369 49.7131Z" fill="#2C4050"/>
<path d="M60.1508 49.7701L53.7758 56.1451C52.5828 56.0491 51.4828 55.6241 50.5688 54.9561L55.8288 49.6921L60.1508 49.7701Z" fill="#2C4050"/>
<path d="M77.6639 49.3631C77.6639 49.6521 77.4349 49.8811 77.1459 49.8811H76.6169C76.5849 53.3591 73.7599 56.1661 70.2779 56.1661C70.1069 56.1661 69.9349 56.1591 69.7669 56.1451C68.5739 56.0491 67.4739 55.6241 66.5599 54.9561C66.1599 54.6701 65.7989 54.3351 65.4779 53.9601C65.2099 53.6491 64.9709 53.3141 64.7669 52.9531C64.2529 52.0461 63.9559 50.9991 63.9459 49.8821H63.4169C63.1279 49.8821 62.8989 49.6531 62.8989 49.3641C62.8989 49.0781 63.1279 48.8461 63.4169 48.8461H77.1449C77.4349 48.8451 77.6639 49.0771 77.6639 49.3631Z" fill="#182632"/>
<path d="M69.7281 49.7131L65.4781 53.9591C65.2101 53.6481 64.9711 53.3131 64.7671 52.9521L68.0271 49.6921L69.7281 49.7131Z" fill="#2C4050"/>
<path d="M69.768 56.1441C68.575 56.0481 67.475 55.6231 66.561 54.9551L71.821 49.6911L76.142 49.7691" fill="#2C4050"/>
<path d="M60.29 50.7831C60.29 50.7831 61.203 50.4741 62.2 50.4511C63.197 50.4271 64.313 50.8191 64.313 50.8191L64.573 52.0921C64.573 52.0921 62.033 50.6181 59.897 52.2361L60.29 50.7831Z" fill="#182632"/>
<path d="M94.4407 162.544H91.1307C89.9597 162.544 88.8257 162.952 87.9237 163.698L83.6257 167.253C83.2077 167.599 82.9307 168.085 82.8467 168.621L82.4997 170.842C82.4277 171.305 82.6627 171.761 83.0817 171.971C83.6167 172.239 84.2677 172.018 84.5307 171.48L85.6097 169.266L87.6447 168.448L82.3997 176.289C81.9577 176.95 82.1327 177.844 82.7917 178.288C83.3807 178.686 84.1717 178.596 84.6567 178.076L91.4747 170.761L85.2737 180.318C84.8247 181.01 84.9967 181.932 85.6637 182.416C86.3357 182.903 87.2727 182.774 87.7877 182.123L94.4407 173.714L89.4437 181.765C89.0727 182.363 89.3497 183.152 90.0137 183.386C90.4577 183.543 90.9517 183.4 91.2447 183.031L97.3927 175.276C99.0507 173.184 100.225 170.75 100.83 168.149C100.83 168.149 99.0237 163.103 94.4407 162.544Z" fill="#F7A67F"/>
<path d="M31.5667 162.544H34.8767C36.0477 162.544 37.1817 162.952 38.0837 163.698L42.3827 167.253C42.8007 167.599 43.0777 168.085 43.1617 168.621L43.5087 170.842C43.5807 171.305 43.3457 171.761 42.9267 171.971C42.3917 172.239 41.7407 172.018 41.4777 171.48L40.3987 169.266L38.3637 168.448L43.6087 176.289C44.0507 176.95 43.8757 177.844 43.2167 178.288C42.6277 178.686 41.8367 178.596 41.3517 178.076L34.5337 170.761L40.7347 180.318C41.1837 181.01 41.0117 181.932 40.3447 182.416C39.6727 182.903 38.7357 182.774 38.2207 182.123L31.5677 173.714L36.5647 181.765C36.9357 182.363 36.6587 183.152 35.9947 183.386C35.5507 183.543 35.0567 183.4 34.7637 183.031L28.6157 175.276C26.9567 173.184 25.7827 170.75 25.1787 168.149C25.1787 168.149 26.9837 163.103 31.5667 162.544Z" fill="#F7A67F"/>
<path d="M45.3168 302.215C45.3168 302.215 45.9628 309.665 45.4518 314.528C45.3408 315.587 44.7528 316.537 43.8698 317.132C40.8628 319.16 33.5018 324.167 28.8228 327.706C22.8288 332.241 15.2888 326.166 20.4538 319.269C27.9838 309.215 31.4358 309.675 33.1698 302.688C33.1698 302.688 35.0828 299.155 45.3168 302.215Z" fill="#001A2E"/>
<path d="M77.2951 302.215C77.2951 302.215 76.6491 309.665 77.1601 314.528C77.2711 315.587 77.8591 316.537 78.7421 317.132C81.7481 319.16 89.1101 324.167 93.7881 327.706C99.7821 332.241 107.322 326.166 102.157 319.269C94.6271 309.215 91.1751 309.675 89.4411 302.688C89.4411 302.688 87.5291 299.155 77.2951 302.215Z" fill="#001A2E"/>
<path d="M61.694 83.1521L51.394 91.1211L49.479 77.4051L51.794 75.1651C51.794 75.1651 54.658 80.0131 61.693 79.8421L61.694 83.1521Z" fill="#002B44"/>
<path d="M61.7188 83.1521L72.0188 91.1211L73.9337 77.4051L71.3898 75.2731C71.3898 75.2731 68.7547 80.0131 61.7188 79.8421V83.1521Z" fill="#002B44"/>
<path d="M53.2279 87.5121C53.2279 87.8501 52.9539 88.1231 52.6169 88.1231C52.2789 88.1231 52.0059 87.8491 52.0059 87.5121C52.0059 87.1741 52.2799 86.9011 52.6169 86.9011C52.9549 86.9011 53.2279 87.1751 53.2279 87.5121Z" fill="#ECB719"/>
<path d="M71.5321 87.5121C71.5321 87.8501 71.2581 88.1231 70.9211 88.1231C70.5841 88.1231 70.3101 87.8491 70.3101 87.5121C70.3101 87.1741 70.5841 86.9011 70.9211 86.9011C71.2581 86.9011 71.5321 87.1751 71.5321 87.5121Z" fill="#ECB719"/>
<path d="M56.2368 87.3751L61.6628 93.7041L67.3538 87.5121L61.7188 83.1521L56.2368 87.3751Z" fill="#001A2E"/>
<path d="M68.6119 135.774L61.7949 151.711L54.7139 135.774L60.1509 91.9401L61.6629 93.7041L63.1749 91.9401L68.6119 135.774Z" fill="#001A2E"/>
<path d="M48.2939 102.055C49.2059 103.799 48.9969 105.871 47.6439 107.373C47.0089 108.079 46.1729 108.619 45.1039 108.619C44.0359 108.619 43.2019 108.079 42.5669 107.373C41.2109 105.871 41.0019 103.799 41.9139 102.055L42.1229 101.657L40.2759 99.2891H49.9339L48.0869 101.657L48.2939 102.055Z" fill="#ECB719"/>
<path d="M66.1857 104.581H57.2827V106.192H66.1857V104.581Z" fill="#ECB719"/>
<path d="M48.234 77.5701L30.281 79.0231C30.281 79.0231 29.554 83.8771 34.516 84.0031L48.8 79.8431L48.234 77.5701Z" fill="#ECB719"/>
<path d="M74.9859 77.3181L92.9389 78.7711C92.9389 78.7711 93.6659 83.6251 88.7039 83.7511L74.4199 79.5911L74.9859 77.3181Z" fill="#ECB719"/>
<path d="M83.5532 26.7891L76.5261 33.9701L62.2362 32.0331L47.9462 33.9701L40.9192 26.7891C39.9492 25.7981 39.9672 24.2091 40.9582 23.2391L45.0652 19.2221C46.2592 18.0551 47.8332 17.3571 49.5002 17.2591C51.6962 17.1291 54.7702 16.8971 56.4852 16.5461L60.1182 14.5661C61.4382 13.8471 63.0332 13.8471 64.3532 14.5661L67.9862 16.5461C69.7012 16.8981 72.7752 17.1301 74.9712 17.2591C76.6382 17.3571 78.2122 18.0551 79.4062 19.2221L83.5131 23.2381C84.5051 24.2081 84.5232 25.7981 83.5532 26.7891Z" fill="#003E59"/>
<path d="M76.878 37.6111H47.397L47.941 33.9701C51.568 31.5971 62.137 32.0331 62.137 32.0331C62.137 32.0331 72.706 31.5971 76.333 33.9701L76.878 37.6111Z" fill="#002B44"/>
<path d="M47.3979 37.6111C47.3979 37.6111 51.2059 34.8061 61.8559 34.8061C72.5059 34.8061 76.879 37.6111 76.879 37.6111C76.879 37.6111 71.3009 41.0951 61.6659 41.0951C52.0309 41.0951 47.3979 37.6111 47.3979 37.6111Z" fill="#001A2E"/>
<path d="M64.9032 24.5511C65.6942 26.0631 65.5132 27.8601 64.3392 29.1621C63.7882 29.7751 63.0632 30.2431 62.1372 30.2431C61.2112 30.2431 60.4872 29.7751 59.9372 29.1621C58.7622 27.8601 58.5802 26.0631 59.3712 24.5511L59.5522 24.2061L57.9502 22.1531H66.3252L64.7232 24.2061L64.9032 24.5511Z" fill="#ECB719"/>
<path opacity="0.2" d="M65.8 337.523C96.3651 337.523 121.143 332.439 121.143 326.167C121.143 319.895 96.3651 314.811 65.8 314.811C35.2349 314.811 10.457 319.895 10.457 326.167C10.457 332.439 35.2349 337.523 65.8 337.523Z" fill="#2C2A40"/>
<path d="M207.308 152.747C200.04 156.464 194.016 158.486 194.016 158.486L194.525 151.407L194.92 145.923C194.92 145.923 196.678 144.963 199.173 143.251C203.903 140.007 211.279 134.057 214.319 126.83C214.958 125.31 215.245 123.754 215.254 122.187V122.164C215.263 119.649 214.552 117.111 213.416 114.668C211.979 111.568 209.861 108.617 207.668 106.057C206.863 105.113 206.045 104.223 205.249 103.398C201.642 99.6632 198.445 97.2492 198.445 97.2492C198.445 97.2492 197.927 86.4932 204.368 78.3372C205.975 76.2972 208.022 74.4212 210.62 72.9142C210.62 72.9142 220.798 89.2682 227.987 109.128C228.971 111.843 229.899 114.621 230.736 117.434C231.072 118.559 231.393 119.689 231.698 120.824C232.003 121.965 232.187 123.086 232.259 124.184C233.08 136.996 218.674 146.941 207.308 152.747Z" fill="#00AAB6"/>
<path opacity="0.2" d="M220.017 126.191C219.828 130.589 217.059 134.824 213.176 138.641C209.397 142.355 207.294 147.449 207.309 152.747C200.041 156.464 194.017 158.486 194.017 158.486L194.526 151.407L194.921 145.923C194.921 145.923 195.006 145.878 195.163 145.788C195.179 145.777 195.197 145.768 195.215 145.757C195.237 145.743 195.262 145.73 195.289 145.714C195.325 145.694 195.363 145.671 195.406 145.649C195.455 145.62 195.507 145.588 195.565 145.555C195.616 145.526 195.67 145.492 195.729 145.459C196.339 145.098 197.262 144.531 198.386 143.784C198.494 143.712 198.603 143.638 198.715 143.562C198.865 143.461 199.018 143.358 199.175 143.25H199.177C203.907 140.004 211.281 134.056 214.32 126.829C214.959 125.309 215.246 123.753 215.255 122.186V122.163C215.264 119.648 214.553 117.11 213.417 114.667C211.98 111.567 209.862 108.616 207.669 106.056L208.454 97.2482C208.451 97.2492 220.689 110.545 220.017 126.191Z" fill="black"/>
<path d="M161.34 158.486C161.34 158.486 159.833 157.982 157.419 157.011C155.004 156.04 151.682 154.605 148.048 152.747C136.682 146.941 122.276 136.996 123.099 124.184C123.171 123.085 123.355 121.965 123.66 120.824C123.965 119.69 124.285 118.56 124.622 117.434C125.458 114.621 126.386 111.843 127.37 109.128C134.559 89.2682 147.365 72.9142 147.365 72.9142C149.963 74.4212 149.383 76.2972 150.99 78.3372C157.431 86.4932 156.913 97.2492 156.913 97.2492C156.913 97.2492 153.716 99.6632 150.109 103.398C149.753 103.768 149.392 104.149 149.031 104.543C148.585 105.03 148.134 105.534 147.69 106.056C145.567 108.535 143.513 111.38 142.083 114.375C142.034 114.471 141.987 114.57 141.942 114.666C140.805 117.11 140.095 119.647 140.104 122.162V122.185C140.113 123.752 140.4 125.308 141.039 126.828C141.609 128.182 142.33 129.493 143.16 130.749C143.299 130.96 143.44 131.166 143.584 131.372C143.902 131.829 144.236 132.28 144.579 132.721C144.7 132.878 144.823 133.033 144.947 133.185C145.104 133.382 145.265 133.575 145.427 133.768C145.629 134.008 145.833 134.243 146.037 134.476C146.127 134.577 146.214 134.676 146.304 134.774C146.849 135.379 147.409 135.964 147.979 136.529C148.154 136.704 148.331 136.876 148.508 137.047C149.75 138.244 151.023 139.345 152.252 140.331C152.525 140.551 152.797 140.764 153.066 140.97C154.176 141.833 155.234 142.595 156.184 143.248H156.186C156.343 143.356 156.495 143.459 156.646 143.56C156.758 143.636 156.868 143.71 156.975 143.782C157.677 144.248 158.3 144.645 158.818 144.966C158.903 145.018 158.984 145.067 159.06 145.112C159.273 145.244 159.463 145.359 159.632 145.457C159.69 145.491 159.744 145.524 159.796 145.553C159.854 145.587 159.906 145.618 159.955 145.647C159.998 145.669 160.036 145.692 160.072 145.712C160.099 145.728 160.123 145.741 160.146 145.755C160.164 145.766 160.182 145.775 160.198 145.786C160.243 145.811 160.281 145.833 160.315 145.851C160.333 145.86 160.346 145.869 160.36 145.876C160.374 145.885 160.387 145.892 160.396 145.896C160.405 145.9 160.414 145.905 160.421 145.91C160.434 145.917 160.441 145.921 160.441 145.921L160.836 151.405L161.34 158.486Z" fill="#00AAB6"/>
<path opacity="0.2" d="M161.34 158.486C161.34 158.486 159.833 157.982 157.419 157.011C155.004 156.04 151.682 154.605 148.048 152.747C148.062 147.45 145.959 142.354 142.179 138.642C138.296 134.824 135.528 130.589 135.339 126.191C134.666 110.545 148.817 95.5052 148.817 95.5052L149.03 104.544C148.584 105.031 148.133 105.535 147.689 106.057C145.566 108.536 143.512 111.381 142.082 114.376C142.033 114.472 141.986 114.571 141.941 114.667C140.804 117.111 140.094 119.648 140.103 122.163V122.186C140.112 123.753 140.399 125.309 141.038 126.829C141.608 128.183 142.329 129.494 143.159 130.75C143.298 130.958 143.439 131.167 143.583 131.373C143.901 131.83 144.235 132.281 144.578 132.722C144.699 132.877 144.82 133.031 144.946 133.186C145.103 133.381 145.264 133.576 145.426 133.769C145.628 134.009 145.832 134.244 146.036 134.477C146.126 134.578 146.213 134.677 146.303 134.775C146.848 135.38 147.408 135.965 147.978 136.53C148.153 136.705 148.33 136.877 148.507 137.048C149.749 138.245 151.022 139.346 152.251 140.332C152.524 140.552 152.796 140.765 153.065 140.971C154.175 141.834 155.233 142.596 156.183 143.249H156.185C156.342 143.357 156.494 143.46 156.645 143.561C156.757 143.637 156.867 143.711 156.974 143.783C157.676 144.249 158.299 144.646 158.817 144.967C158.902 145.019 158.983 145.068 159.059 145.113C159.272 145.245 159.462 145.36 159.631 145.458C159.689 145.492 159.743 145.525 159.795 145.554C159.853 145.588 159.905 145.619 159.954 145.648C159.997 145.67 160.035 145.693 160.071 145.713C160.098 145.729 160.122 145.742 160.145 145.756C160.163 145.767 160.181 145.776 160.197 145.787C160.242 145.812 160.28 145.834 160.314 145.852C160.332 145.863 160.345 145.87 160.359 145.877C160.373 145.886 160.386 145.893 160.395 145.897C160.406 145.904 160.413 145.908 160.42 145.911C160.433 145.918 160.44 145.922 160.44 145.922L160.835 151.406L161.34 158.486Z" fill="black"/>
<path d="M207.319 248.424L207.178 254.874L206.268 296.146L206.117 302.911L194.088 304.173L193.163 296.146L191.427 281.041C190.472 278.292 189.711 275.662 189.109 273.172C185.246 257.218 187.874 246.91 187.874 246.91L178.975 194.678H175.707L166.808 246.91C166.808 246.91 169.844 258.815 164.593 276.838V276.853C164.195 278.214 163.751 279.612 163.255 281.041L161.519 296.146L160.594 304.173L148.565 302.911L148.414 296.146L147.363 248.424L147.368 248.371V248.359L147.378 248.114L151.659 167.829L151.82 164.823L151.938 162.573L151.971 161.973L151.984 161.746H202.696L202.716 162.121L202.769 163.104L202.867 164.938L203.021 167.828L207.312 248.343L207.319 248.424Z" fill="#00AAB6"/>
<path d="M210.62 72.9152L210.156 78.0952L207.364 109.457L207.311 110.026V110.029L206.91 114.532V114.534L206.719 116.688C206.719 116.691 206.719 116.691 206.719 116.691L206.442 119.805V119.808L204.817 138.033L204.303 143.818L204.081 146.295L203.433 153.564L203.322 154.796L203.246 155.653L202.704 161.748H151.984L151.745 157.172L151.662 155.562L151.591 154.219L151.18 146.295L149.759 118.977L149.585 115.611L149.434 112.746L149.149 107.268L147.363 72.9152L148.059 72.7112C148.311 72.6382 148.563 72.5622 148.815 72.4922C149.533 72.2832 150.254 72.0842 150.974 71.8922C153.025 71.3452 155.089 70.8612 157.165 70.4412C157.901 70.2902 158.636 70.1462 159.375 70.0132C160.474 69.8142 161.572 69.6322 162.673 69.4662C162.799 69.4462 162.927 69.4262 163.053 69.4082C163.111 69.4002 163.169 69.3882 163.229 69.3832C164.204 69.2422 165.184 69.1132 166.164 69.0002C166.25 68.9902 166.335 68.9802 166.421 68.9702C170.493 68.5012 174.592 68.2672 178.702 68.2672C181.713 68.2672 184.719 68.3932 187.715 68.6452C188.426 68.7032 189.139 68.7712 189.847 68.8472C189.996 68.8602 190.142 68.8772 190.29 68.8922C190.832 68.9502 191.376 69.0132 191.918 69.0812C192.397 69.1392 192.873 69.1992 193.349 69.2652C194.284 69.3942 195.216 69.5352 196.148 69.6882C196.889 69.8092 197.627 69.9352 198.363 70.0732C200.459 70.4642 202.543 70.9142 204.617 71.4262H204.62C204.653 71.4342 204.688 71.4412 204.723 71.4512L206.797 71.9682L210.62 72.9152Z" fill="#00AAB6"/>
<path opacity="0.2" d="M161.519 296.145L160.596 304.173L148.566 302.911L148.416 296.145H161.519Z" fill="black"/>
<path opacity="0.2" d="M206.268 296.145L206.118 302.911L194.088 304.173L193.164 296.145H206.268Z" fill="black"/>
<path opacity="0.2" d="M207.319 248.424L207.178 254.874L196.09 249.442C201.109 247.068 204.921 247.494 207.315 248.343L207.319 248.424Z" fill="black"/>
<path opacity="0.2" d="M147.364 248.2L147.505 254.65L158.593 249.218C153.574 246.844 149.763 247.27 147.368 248.119L147.364 248.2Z" fill="black"/>
<path opacity="0.2" d="M191.427 281.04L189.109 273.171C185.246 257.216 187.876 246.911 187.876 246.911L178.976 194.677H175.708L166.808 246.911C166.808 246.911 169.846 258.815 164.595 276.839C167.601 263.899 164.16 247.447 164.16 247.447L172.641 192.575C171.868 191.721 171.033 190.039 170.399 188.241C170.399 188.241 175.407 193.173 184.757 188.6C184.757 188.6 184.899 189.961 182.056 193.023L190.427 245.781C190.427 245.781 187.793 262.646 191.427 281.04Z" fill="black"/>
<path d="M190.292 68.8912L178.137 90.6532L166.166 68.9992C170.238 68.5302 174.594 68.2662 178.704 68.2662C181.715 68.2662 184.721 68.3922 187.717 68.6442C188.576 68.7142 189.435 68.7982 190.292 68.8912Z" fill="white"/>
<path d="M204.817 138.032L204.303 143.817L162.674 69.4652C162.8 69.4452 162.928 69.4252 163.054 69.4072C163.112 69.3992 163.17 69.3872 163.23 69.3822C164.205 69.2412 165.185 69.1122 166.165 68.9992L178.095 90.3082L179.982 93.6792L204.817 138.032Z" fill="#008992"/>
<path d="M193.351 69.2642L179.984 93.6792V93.6822L179.311 94.9122L176.439 93.3402L178.097 90.3112V90.3082L189.849 68.8462C189.998 68.8592 190.144 68.8762 190.292 68.8912C190.834 68.9492 191.378 69.0122 191.92 69.0802C192.398 69.1382 192.874 69.1982 193.351 69.2642Z" fill="#008992"/>
<path d="M202.706 161.747H202.698L202.718 162.122L202.771 163.105C193.985 164.685 185.791 165.254 178.542 165.254C166.622 165.254 157.244 163.714 151.94 162.573L151.973 161.973L151.986 161.746L151.747 157.17L151.664 155.56L151.593 154.217C154.355 154.877 159.706 155.983 166.839 156.636C175.539 157.43 188.563 157.671 203.323 154.794L203.247 155.651L202.706 161.747Z" fill="#008992"/>
<path d="M160.712 302.575C160.712 302.575 161.365 310.103 160.848 315.018C160.735 316.088 160.141 317.048 159.249 317.65C156.211 319.699 148.772 324.759 144.044 328.336C137.987 332.919 130.367 326.78 135.587 319.81C143.196 309.65 146.685 310.115 148.437 303.055C148.437 303.055 150.37 299.482 160.712 302.575Z" fill="#001A2E"/>
<path d="M194.055 302.575C194.055 302.575 193.402 310.103 193.919 315.018C194.032 316.088 194.625 317.048 195.518 317.65C198.556 319.699 205.995 324.759 210.723 328.336C216.781 332.919 224.4 326.78 219.18 319.81C211.571 309.65 208.082 310.115 206.33 303.055C206.33 303.055 204.397 299.482 194.055 302.575Z" fill="#001A2E"/>
<path d="M177.875 59.8762L167.221 58.5562C167.221 58.5562 167.466 60.1682 167.605 62.2592C167.641 62.7872 167.67 63.3462 167.686 63.9172V69.6292C167.686 69.6292 170.647 76.6972 177.875 76.6972C185.102 76.6972 188.069 68.9172 188.069 68.9172L188.094 63.1812C188.21 60.6632 188.529 58.5572 188.529 58.5572L177.875 59.8762Z" fill="#F7A67F"/>
<path d="M188.529 57.1052C188.529 57.1052 188.21 59.2112 188.094 61.7292C186.186 64.5482 183.106 66.9372 178.138 67.0502C172.633 66.9242 169.446 64.0072 167.606 60.8082C167.468 58.7172 167.222 57.1052 167.222 57.1052L177.876 58.4252L188.529 57.1052Z" fill="#F48066"/>
<path d="M192.311 34.4962V47.4422C192.311 51.0192 191.457 54.5572 189.737 57.6922C187.641 61.5112 184.038 65.5072 178.137 65.5072C172.976 65.3472 169.567 62.2542 167.39 58.9512C165.106 55.4872 163.96 51.3952 163.96 47.2452V34.4952C163.89 22.2882 170.966 21.0732 175.146 21.4182C177.137 21.5822 179.138 21.5822 181.129 21.4182C185.308 21.0742 192.383 22.2892 192.311 34.4962Z" fill="#F7A67F"/>
<path d="M164.231 37.0322C164.231 37.0322 164.845 33.9062 161.058 34.4972C158.995 34.8192 159.523 39.7952 160.444 41.8422C161.365 43.8892 160.445 50.5172 164.231 49.7622V37.0322Z" fill="#F7A67F"/>
<path d="M161.044 37.7492C161.044 37.7492 164.07 36.4182 163.197 45.5272C163.197 45.5272 163.142 38.9772 161.044 37.7492Z" fill="#F48066"/>
<path d="M191.735 37.0322C191.735 37.0322 191.121 33.9062 194.908 34.4972C196.971 34.8192 196.443 39.7952 195.522 41.8422C194.601 43.8892 195.521 50.5172 191.735 49.7622V37.0322Z" fill="#F7A67F"/>
<path d="M194.921 37.7492C194.921 37.7492 191.895 36.4182 192.768 45.5272C192.768 45.5272 192.823 38.9772 194.921 37.7492Z" fill="#F48066"/>
<path d="M173.497 41.9802C173.405 42.6132 172.817 43.0522 172.184 42.9602C171.55 42.8682 171.112 42.2802 171.204 41.6472C171.296 41.0142 171.884 40.5752 172.517 40.6672C173.15 40.7592 173.588 41.3462 173.497 41.9802Z" fill="#2C2A40"/>
<path d="M175.776 37.6062C175.776 37.6062 170.017 33.8902 167.565 38.7892C167.565 38.7892 170.539 36.5992 174.557 38.3842C175.121 38.6352 175.76 38.2242 175.776 37.6062Z" fill="#381E0A"/>
<path d="M181.228 37.6062C181.228 37.6062 186.987 33.8902 189.439 38.7892C189.439 38.7892 186.465 36.5992 182.447 38.3842C181.883 38.6352 181.244 38.2242 181.228 37.6062Z" fill="#381E0A"/>
<path d="M183.507 41.9802C183.599 42.6132 184.187 43.0522 184.82 42.9602C185.453 42.8682 185.892 42.2802 185.8 41.6472C185.708 41.0142 185.12 40.5752 184.487 40.6672C183.854 40.7592 183.415 41.3462 183.507 41.9802Z" fill="#2C2A40"/>
<path d="M174.913 47.9322C174.913 47.9322 175.526 49.3142 178.136 49.3142C180.747 49.3142 181.629 47.9322 181.629 47.9322C181.629 47.9322 181.015 50.3882 178.271 50.5042C175.527 50.6192 174.913 47.9322 174.913 47.9322Z" fill="#F48066"/>
<path d="M170.647 53.2692C171.383 56.8242 174.532 59.4972 178.306 59.4972C182.08 59.4972 185.229 56.8242 185.965 53.2692H170.647Z" fill="white"/>
<path d="M174.644 59.9662C174.644 59.9662 178.022 61.9842 181.629 59.9662C181.629 59.9662 178.307 63.6092 174.644 59.9662Z" fill="#F48066"/>
<path d="M198.596 21.1232C198.587 21.1122 198.578 21.1032 198.574 21.0982C198.576 21.0962 198.576 21.0982 198.578 21.1002C198.58 21.1022 198.583 21.1042 198.587 21.1092C198.589 21.1142 198.594 21.1182 198.596 21.1232Z" fill="#F8EAE1"/>
<path d="M165.144 27.1272C165.144 27.1272 167.954 29.5062 166.419 34.4972C165.511 37.4502 165.534 39.8742 165.705 41.3612C165.804 42.2192 164.808 42.8222 163.944 42.8222L163.941 42.6782L163.961 35.3492C163.961 35.3492 161.618 27.0482 165.144 27.1272Z" fill="#381E0A"/>
<path d="M191.173 27.1272C191.173 27.1272 188.363 29.5062 189.898 34.4972C190.806 37.4502 190.783 39.8742 190.612 41.3612C190.513 42.2192 191.746 43.1682 192.61 43.1682L192.655 42.8212L192.558 34.5402C192.558 34.5422 194.699 27.0482 191.173 27.1272Z" fill="#381E0A"/>
<path opacity="0.4" d="M176.388 42.1232C176.388 44.6042 174.377 46.6152 171.896 46.6152C171.416 46.6152 170.952 46.5402 170.519 46.4002C170.277 46.3232 170.043 46.2252 169.821 46.1092C169.334 45.8562 168.901 45.5152 168.539 45.1092C168.171 44.6952 167.878 44.2142 167.682 43.6852C167.501 43.1982 167.403 42.6722 167.403 42.1222C167.403 39.6402 169.415 37.6292 171.896 37.6292C172.446 37.6292 172.972 37.7282 173.459 37.9082C173.988 38.1042 174.47 38.3972 174.883 38.7652C175.289 39.1262 175.629 39.5602 175.883 40.0472C175.999 40.2692 176.096 40.5022 176.174 40.7452C176.313 41.1792 176.388 41.6432 176.388 42.1232Z" fill="white"/>
<path opacity="0.5" d="M174.882 38.7662L168.538 45.1102C168.17 44.6962 167.877 44.2152 167.681 43.6862L173.458 37.9092C173.987 38.1052 174.469 38.3982 174.882 38.7662Z" fill="white"/>
<path opacity="0.5" d="M176.173 40.7462L170.519 46.4002C170.277 46.3232 170.043 46.2252 169.821 46.1092L175.882 40.0482C175.998 40.2712 176.095 40.5042 176.173 40.7462Z" fill="white"/>
<path d="M171.895 47.0542C169.176 47.0542 166.964 44.8422 166.964 42.1232C166.964 39.4042 169.176 37.1922 171.895 37.1922C174.614 37.1922 176.826 39.4042 176.826 42.1232C176.826 44.8422 174.615 47.0542 171.895 47.0542ZM171.895 37.8642C169.547 37.8642 167.637 39.7742 167.637 42.1222C167.637 44.4702 169.547 46.3802 171.895 46.3802C174.243 46.3802 176.153 44.4702 176.153 42.1222C176.153 39.7742 174.243 37.8642 171.895 37.8642Z" fill="#22222F"/>
<path opacity="0.4" d="M189.536 42.1232C189.536 44.6042 187.525 46.6152 185.044 46.6152C184.564 46.6152 184.1 46.5402 183.667 46.4002C183.425 46.3232 183.191 46.2252 182.969 46.1092C182.482 45.8562 182.049 45.5152 181.687 45.1092C181.319 44.6952 181.026 44.2142 180.83 43.6852C180.649 43.1982 180.551 42.6722 180.551 42.1222C180.551 39.6402 182.563 37.6292 185.045 37.6292C185.595 37.6292 186.121 37.7282 186.608 37.9082C187.136 38.1042 187.619 38.3972 188.032 38.7652C188.438 39.1262 188.778 39.5602 189.032 40.0472C189.148 40.2692 189.245 40.5022 189.322 40.7452C189.461 41.1792 189.536 41.6432 189.536 42.1232Z" fill="white"/>
<path opacity="0.5" d="M188.031 38.7662L181.687 45.1102C181.319 44.6962 181.026 44.2152 180.83 43.6862L186.607 37.9092C187.135 38.1052 187.618 38.3982 188.031 38.7662Z" fill="white"/>
<path opacity="0.5" d="M189.321 40.7462L183.667 46.4002C183.425 46.3232 183.191 46.2252 182.969 46.1092L189.03 40.0482C189.146 40.2712 189.244 40.5042 189.321 40.7462Z" fill="white"/>
<path d="M185.044 47.0542C182.325 47.0542 180.113 44.8422 180.113 42.1232C180.113 39.4042 182.325 37.1922 185.044 37.1922C187.763 37.1922 189.975 39.4042 189.975 42.1232C189.975 44.8422 187.763 47.0542 185.044 47.0542ZM185.044 37.8642C182.696 37.8642 180.786 39.7742 180.786 42.1222C180.786 44.4702 182.696 46.3802 185.044 46.3802C187.392 46.3802 189.302 44.4702 189.302 42.1222C189.302 39.7742 187.392 37.8642 185.044 37.8642Z" fill="#22222F"/>
<path d="M176.556 41.8722C176.556 41.8722 178.314 39.9462 180.551 41.8722V42.8412C180.551 42.8412 178.601 40.7972 176.556 42.8412V41.8722Z" fill="#22222F"/>
<path d="M188.54 39.1202C188.54 39.1202 190.446 35.9142 192.558 34.5422C192.909 34.4152 193.21 34.3822 193.451 34.4652C193.451 34.4652 192.83 35.2702 192.494 35.7532C192.494 35.7532 190.888 37.7132 189.187 39.7922L188.54 39.1202Z" fill="#22222F"/>
<path d="M168.266 39.3762C168.266 39.3762 166.36 36.1702 164.248 34.7982C163.897 34.6712 163.596 34.6382 163.355 34.7212C163.355 34.7212 163.976 35.5262 164.311 36.0092C164.311 36.0092 165.917 37.9692 167.618 40.0482L168.266 39.3762Z" fill="#22222F"/>
<path d="M193.953 18.1052C193.953 18.1052 193.648 14.5622 191.333 13.4412C189.02 12.3202 187.659 13.4692 187.659 13.4692C187.659 13.4692 187.422 10.5562 183.623 10.8082C183.239 10.8332 182.908 10.8282 182.61 10.8002C182.425 10.2762 181.915 9.43724 180.511 9.09024C178.401 8.56924 177.298 9.84024 177.298 9.84024C177.298 9.84024 176.322 8.69724 174.055 9.23224C172.57 9.58324 172.046 10.3362 171.86 10.8172C171.799 10.8142 171.737 10.8112 171.673 10.8072C167.873 10.5552 167.637 13.4682 167.637 13.4682C167.637 13.4682 166.276 12.3192 163.961 13.4402C161.648 14.5612 161.343 18.1042 161.343 18.1042C157.415 18.8502 159.632 26.4292 159.632 26.4292C158.213 31.6362 164.269 32.6442 164.269 32.6442L165.688 30.3512C169.112 30.9332 170.056 27.6912 170.056 27.6912C171.016 27.6912 172.034 26.8702 172.715 26.1882C173.023 26.4282 173.636 26.7122 174.82 26.7122C176.867 26.7122 177.371 25.5472 177.371 25.5472C177.371 25.5472 178.851 27.4052 181.024 26.5232C181.592 26.2932 181.986 26.0652 182.261 25.8532C182.908 26.5612 184.117 27.6912 185.241 27.6912C185.241 27.6912 186.833 30.8662 190.257 30.2842L192.61 32.6442C192.61 32.6442 197.602 29.6212 195.664 26.4292C195.664 26.4292 197.881 18.8512 193.953 18.1052Z" fill="#381E0A"/>
<path d="M203.806 93.7042H188.864V97.9032H203.806V93.7042Z" fill="#008992"/>
<path d="M163.932 50.3572L163.931 50.3612C163.907 50.4762 163.988 50.5872 164.113 50.6082C165.454 50.8382 167.979 51.2082 169.839 51.0942L170.093 50.6922C170.093 50.6922 167.251 50.7102 164.198 50.1902C164.075 50.1692 163.956 50.2432 163.932 50.3572Z" fill="white"/>
<path d="M164.555 53.2212L164.552 53.2242C164.467 53.3052 164.471 53.4422 164.561 53.5312C165.535 54.4822 167.404 56.2192 169 57.1812L169.437 56.9942C169.437 56.9942 167.087 55.3962 164.868 53.2352C164.78 53.1482 164.64 53.1412 164.555 53.2212Z" fill="white"/>
<path d="M192.399 50.3692L192.4 50.3732C192.424 50.4882 192.343 50.5992 192.218 50.6202C190.877 50.8502 188.352 51.2202 186.491 51.1062L186.237 50.7042C186.237 50.7042 189.079 50.7222 192.132 50.2022C192.256 50.1812 192.375 50.2552 192.399 50.3692Z" fill="white"/>
<path d="M191.776 53.2332L191.779 53.2362C191.864 53.3172 191.86 53.4542 191.77 53.5432C190.796 54.4942 188.927 56.2312 187.331 57.1932L186.893 57.0062C186.893 57.0062 189.243 55.4082 191.462 53.2472C191.552 53.1602 191.692 53.1532 191.776 53.2332Z" fill="white"/>
<path d="M187.704 51.1802L187.714 50.6682C187.719 50.5652 187.723 50.5082 187.723 50.5082C187.721 50.5092 187.719 50.5112 187.717 50.5122L187.719 50.4092C187.719 50.4092 182.652 50.9702 178.553 51.1232C174.821 51.2622 169.361 50.5082 169.361 50.5082C169.361 50.5082 169.657 53.8942 168.143 56.7922C168.143 56.7922 171.217 64.3912 178.536 64.4142H178.569C185.889 64.3912 188.962 56.7922 188.962 56.7922C187.859 54.6802 187.706 52.3112 187.704 51.1802Z" fill="#00AAB6"/>
<path opacity="0.2" d="M177.875 337.523C209.414 337.523 234.983 332.277 234.983 325.805C234.983 319.334 209.414 314.087 177.875 314.087C146.335 314.087 120.767 319.334 120.767 325.805C120.767 332.277 146.335 337.523 177.875 337.523Z" fill="#2C2A40"/>
<path opacity="0.2" d="M114.584 359.469C151.331 359.469 181.121 353.356 181.121 345.816C181.121 338.276 151.331 332.163 114.584 332.163C77.8365 332.163 48.0469 338.276 48.0469 345.816C48.0469 353.356 77.8365 359.469 114.584 359.469Z" fill="#2C2A40"/>
<path d="M116.164 19.77C116.164 19.77 98.7858 17.956 92.7708 22.79C86.7548 27.624 85.0357 40.377 103.1 45.527L116.164 19.77Z" fill="#CA1F42"/>
<path d="M116.898 19.762C116.898 19.762 134.276 17.99 140.291 22.712C146.306 27.434 148.026 39.891 129.961 44.921L116.898 19.762Z" fill="#CA1F42"/>
<path d="M148.524 262.607L148.37 269.67L147.931 289.479L147.649 302.344L147.372 314.859L147.208 322.267L134.035 323.648L133.025 314.859L131.586 302.344L131.122 298.32C130.076 295.309 129.245 292.432 128.585 289.703C128.567 289.627 128.55 289.552 128.532 289.479C124.38 272.139 127.234 260.949 127.234 260.949L117.488 203.759H113.91L104.164 260.949C104.164 260.949 107.019 272.136 102.869 289.479C102.539 290.855 102.166 292.268 101.743 293.72C101.743 293.725 101.74 293.73 101.74 293.735C101.304 295.224 100.82 296.756 100.276 298.321L99.812 302.345L98.373 314.86L97.363 323.649L84.19 322.268L84.026 314.86L83.751 302.345L83.466 289.48L82.874 262.608L87.933 167.701H143.461L148.515 262.519L148.524 262.607Z" fill="#EA3A4B"/>
<path d="M152.137 70.435L148.574 110.447L147.528 122.194L146.676 131.751L146.316 135.775L145.464 145.334L143.471 167.701H87.9359L86.7719 145.334L86.2759 135.775L86.0669 131.751L85.5709 122.194L82.8779 70.436L83.6419 70.212C89.0309 68.617 94.5169 67.41 100.06 66.599C100.123 66.589 100.186 66.576 100.249 66.569C105.855 65.758 111.517 65.347 117.196 65.347C122.036 65.347 126.869 65.644 131.666 66.236C136.378 66.818 141.059 67.687 145.683 68.834L152.137 70.435Z" fill="#EA3A4B"/>
<path d="M98.3758 314.858L97.3648 323.648L84.1928 322.267L84.0288 314.858H98.3758Z" fill="#C22D2A"/>
<path d="M147.373 314.858L147.208 322.267L134.037 323.648L133.025 314.858H147.373Z" fill="#C22D2A"/>
<path d="M148.524 262.607L148.369 269.669L136.229 263.721C141.725 261.122 145.898 261.588 148.519 262.518L148.524 262.607Z" fill="#C22D2A"/>
<path d="M82.8779 262.362L83.0329 269.424L95.1739 263.477C89.6779 260.878 85.5049 261.344 82.8839 262.274L82.8779 262.362Z" fill="#C22D2A"/>
<path d="M131.123 298.319L128.585 289.703C124.356 272.233 127.235 260.95 127.235 260.95L117.49 203.758H113.911L104.166 260.95C104.166 260.95 107.492 273.984 101.743 293.719C105.035 279.551 101.267 261.537 101.267 261.537L110.554 201.456C109.707 200.521 108.793 198.679 108.098 196.71C108.098 196.71 113.581 202.11 123.819 197.103C123.819 197.103 123.974 198.593 120.862 201.946L130.027 259.713C130.027 259.713 127.144 278.179 131.123 298.319Z" fill="#C22D2A"/>
<path d="M147.528 122.193L146.677 131.75H86.0668L85.5708 122.193H147.528Z" fill="#ECB719"/>
<path d="M146.317 135.774L145.465 145.334H86.7729L86.2759 135.774H146.317Z" fill="#ECB719"/>
<path d="M127.366 60.366C127.202 66.072 123.549 71.051 118.412 72.218C118.239 72.257 118.064 72.293 117.888 72.325C117.35 72.426 116.797 72.486 116.238 72.503H116.182C115.623 72.486 115.069 72.426 114.532 72.325C114.357 72.293 114.183 72.258 114.01 72.218C108.859 71.049 105.221 66.047 105.055 60.326C105.037 59.701 105.005 59.089 104.966 58.511C104.815 56.221 104.546 54.456 104.546 54.456L116.211 55.902L127.876 54.456C127.876 54.456 127.527 56.762 127.4 59.519C127.385 59.797 127.374 60.08 127.366 60.366Z" fill="#F7A67F"/>
<path d="M127.874 52.867C127.874 52.867 127.525 55.173 127.398 57.93C125.308 61.016 121.936 63.632 116.496 63.756C110.469 63.618 106.979 60.424 104.964 56.921C104.813 54.631 104.544 52.866 104.544 52.866L116.209 54.312L127.874 52.867Z" fill="#F48066"/>
<path d="M132.016 28.112V42.287C132.016 46.203 131.081 50.077 129.197 53.51C126.902 57.692 122.957 62.067 116.496 62.067C110.845 61.892 107.113 58.505 104.728 54.888C102.227 51.095 100.973 46.615 100.973 42.071V28.111C100.897 14.745 108.644 13.414 113.221 13.792C115.401 13.972 117.592 13.972 119.771 13.792C124.349 13.415 132.095 14.746 132.016 28.112Z" fill="#F7A67F"/>
<path d="M101.269 30.889C101.269 30.889 101.941 27.466 97.7938 28.114C95.5358 28.467 96.1128 33.915 97.1218 36.156C98.1308 38.397 97.1228 45.654 101.269 44.828V30.889Z" fill="#F7A67F"/>
<path d="M97.7808 31.673C97.7808 31.673 101.095 30.216 100.138 40.19C100.138 40.19 100.078 33.018 97.7808 31.673Z" fill="#F48066"/>
<path d="M131.385 30.889C131.385 30.889 130.713 27.466 134.86 28.114C137.118 28.467 136.541 33.915 135.532 36.156C134.523 38.397 135.531 45.654 131.385 44.828V30.889Z" fill="#F7A67F"/>
<path d="M134.873 31.673C134.873 31.673 131.559 30.216 132.516 40.19C132.516 40.19 132.576 33.018 134.873 31.673Z" fill="#F48066"/>
<path d="M102.269 20.044C102.269 20.044 105.345 22.649 103.664 28.114C102.67 31.347 102.695 34.001 102.883 35.629C102.991 36.568 102.255 37.389 101.31 37.389L100.974 29.046C100.974 29.046 98.4078 19.957 102.269 20.044Z" fill="#001A2E"/>
<path d="M130.769 20.044C130.769 20.044 127.693 22.649 129.374 28.114C130.368 31.347 130.343 34.001 130.156 35.629C130.048 36.568 130.784 37.389 131.729 37.389L132.065 29.046C132.065 29.046 134.63 19.957 130.769 20.044Z" fill="#001A2E"/>
<path d="M111.415 36.306C111.314 37 110.67 37.48 109.977 37.379C109.284 37.278 108.803 36.634 108.904 35.941C109.005 35.248 109.649 34.767 110.342 34.868C111.035 34.969 111.515 35.613 111.415 36.306Z" fill="#2C2A40"/>
<path d="M113.912 31.517C113.912 31.517 107.606 27.448 104.921 32.812C104.921 32.812 108.178 30.414 112.576 32.369C113.195 32.643 113.894 32.194 113.912 31.517Z" fill="#2C2A40"/>
<path d="M119.88 31.517C119.88 31.517 126.186 27.448 128.871 32.812C128.871 32.812 125.615 30.414 121.216 32.369C120.597 32.643 119.898 32.194 119.88 31.517Z" fill="#2C2A40"/>
<path d="M122.377 36.306C122.478 37 123.122 37.48 123.815 37.379C124.508 37.278 124.989 36.634 124.888 35.941C124.787 35.248 124.143 34.767 123.45 34.868C122.757 34.969 122.276 35.613 122.377 36.306Z" fill="#2C2A40"/>
<path d="M112.966 42.824C112.966 42.824 113.637 44.337 116.495 44.337C119.353 44.337 120.32 42.824 120.32 42.824C120.32 42.824 119.648 45.513 116.643 45.64C113.638 45.765 112.966 42.824 112.966 42.824Z" fill="#F48066"/>
<path d="M108.296 48.667C109.102 52.56 112.55 55.486 116.682 55.486C120.814 55.486 124.262 52.56 125.068 48.667H108.296Z" fill="white"/>
<path d="M127.309 61.16L127.103 64.081L126.985 65.753L126.619 71.293C126.619 71.293 122.584 74.165 117.134 74.484C116.812 74.506 116.484 74.516 116.152 74.516C115.877 74.516 115.607 74.511 115.345 74.501C107.647 74.216 104.996 69.911 104.996 69.911V61.16C104.996 61.16 107.645 66.234 115.345 66.406C115.477 66.408 115.613 66.411 115.75 66.411C116.229 66.411 116.69 66.391 117.134 66.357C123.938 65.824 127.095 61.467 127.296 61.175C127.306 61.165 127.309 61.16 127.309 61.16Z" fill="#EA3A4B"/>
<path d="M112.672 56C112.672 56 116.371 58.209 120.321 56C120.321 56 116.682 59.989 112.672 56Z" fill="#F48066"/>
<path opacity="0.2" d="M127.296 61.174L127.102 64.08C127.102 64.08 125.388 68.763 116.181 68.763C106.976 68.763 104.996 64.08 104.996 64.08V61.159C104.996 61.159 107.645 66.233 115.345 66.405C115.477 66.407 115.613 66.41 115.75 66.41C116.229 66.41 116.69 66.39 117.134 66.356C123.938 65.823 127.095 61.466 127.296 61.174Z" fill="black"/>
<path d="M138.897 13.469C138.887 13.457 138.877 13.447 138.872 13.442C138.875 13.439 138.875 13.442 138.877 13.444C138.879 13.446 138.882 13.449 138.887 13.454C138.89 13.459 138.894 13.464 138.897 13.469Z" fill="#F8EAE1"/>
<path d="M143.657 171.312C124.973 173.594 106.29 173.594 87.606 171.312V162.018C106.536 164.401 125.226 164.466 143.657 162.018V171.312Z" fill="#ECB719"/>
<path d="M188.85 132.426C187.227 141.403 179.87 150.129 165.853 166.847C165.566 167.187 164.694 167.898 163.711 168.676C162.287 169.807 160.635 171.08 160.191 171.591C154.718 168.595 155.159 167.222 153.144 164.637C153.144 164.637 153.363 164.325 153.683 163.848C154.336 162.89 155.404 161.265 155.905 160.215C155.918 160.19 155.93 160.165 155.945 160.137C157.983 155.922 164.386 146.614 169.536 130.405C170.234 128.21 169.808 125.834 168.427 124.035C168.248 123.796 168.049 123.569 167.832 123.352C166.141 121.651 163.874 119.308 161.402 116.584C160.651 115.758 159.883 114.898 159.107 114.009L159.099 114.004C157.078 111.691 155.002 109.197 153.052 106.642C151.424 104.505 149.887 102.331 148.542 100.189C146.917 97.601 145.579 95.059 144.722 92.708L152.135 70.435L164.217 86.767L167.865 91.695L168.293 92.277L173.592 99.438L175.336 101.796L181.822 110.562L185.418 115.425C188.666 120.457 189.919 126.532 188.85 132.426Z" fill="#EA3A4B"/>
<path d="M173.593 99.439L159.108 114.01L159.101 114.005C157.081 111.693 155.004 109.196 153.055 106.641L167.094 90.651L168.296 92.276L173.593 99.439Z" fill="#ECB719"/>
<path d="M181.823 110.563L168.429 124.035C168.25 123.796 168.051 123.569 167.834 123.352C166.143 121.651 163.876 119.308 161.404 116.584L175.338 101.796L181.823 110.563Z" fill="#ECB719"/>
<path opacity="0.2" d="M155.174 167.7L153.054 164.964C153.707 164.007 155.403 161.266 155.907 160.215C155.919 160.188 155.932 160.164 155.946 160.136C157.983 155.919 164.387 146.614 169.537 130.403C170.327 127.919 169.674 125.202 167.834 123.351C165.632 121.137 162.446 117.828 159.108 114.009L159.101 114.004C157.081 111.692 155.004 109.195 153.055 106.64C151.425 104.505 149.888 102.33 148.543 100.189L148.056 99.4C148.056 99.4 167.959 113.749 174.795 125.047C181.632 136.347 155.174 167.7 155.174 167.7Z" fill="black"/>
<path d="M153.163 163.83H149.342C147.991 163.83 146.682 164.301 145.64 165.162L140.678 169.266C140.196 169.665 139.876 170.227 139.779 170.845L139.378 173.409C139.295 173.943 139.566 174.47 140.05 174.712C140.668 175.021 141.419 174.766 141.722 174.145L142.968 171.589L145.317 170.645L139.263 179.696C138.753 180.459 138.955 181.49 139.715 182.004C140.395 182.463 141.308 182.36 141.868 181.759L149.738 173.315L142.58 184.347C142.062 185.145 142.26 186.21 143.031 186.768C143.807 187.331 144.889 187.181 145.483 186.43L153.163 176.723L147.395 186.016C146.966 186.707 147.286 187.617 148.053 187.887C148.565 188.068 149.136 187.903 149.474 187.478L156.571 178.526C158.486 176.111 159.841 173.301 160.538 170.299C160.538 170.299 158.453 164.475 153.163 163.83Z" fill="#F7A67F"/>
<path d="M46.1628 132.426C47.7858 141.403 55.1428 150.129 69.1598 166.847C69.4468 167.187 70.3188 167.898 71.3018 168.676C72.7258 169.807 74.3788 171.08 74.8218 171.591C80.2948 168.595 79.8538 167.222 81.8688 164.637C81.8688 164.637 81.6498 164.325 81.3298 163.848C80.6768 162.89 79.6088 161.265 79.1078 160.215C79.0948 160.19 79.0828 160.165 79.0678 160.137C77.0298 155.922 70.6268 146.614 65.4768 130.405C64.7788 128.21 65.2048 125.834 66.5858 124.035C66.7648 123.796 66.9638 123.569 67.1808 123.352C68.8718 121.651 71.1388 119.308 73.6108 116.584C74.3618 115.758 75.1298 114.898 75.9058 114.009L75.9138 114.004C77.9348 111.691 80.0108 109.197 81.9608 106.642C83.5888 104.505 85.1258 102.331 86.4708 100.189C88.0958 97.601 89.4338 95.059 90.2908 92.708L82.8778 70.435L70.7958 86.767L67.1478 91.695L66.7198 92.277L61.4208 99.438L59.6768 101.796L53.1908 110.562L49.5948 115.425C46.3468 120.457 45.0948 126.532 46.1628 132.426Z" fill="#EA3A4B"/>
<path d="M61.4209 99.439L75.9059 114.01L75.9129 114.005C77.9329 111.693 80.0099 109.196 81.9589 106.641L67.9199 90.651L66.7179 92.276L61.4209 99.439Z" fill="#ECB719"/>
<path d="M53.1899 110.563L66.584 124.035C66.763 123.796 66.9619 123.569 67.1789 123.352C68.8699 121.651 71.1369 119.308 73.6089 116.584L59.6759 101.796L53.1899 110.563Z" fill="#ECB719"/>
<path opacity="0.2" d="M79.8388 167.7L81.9588 164.964C81.3058 164.007 79.6098 161.266 79.1058 160.215C79.0938 160.188 79.0818 160.164 79.0668 160.136C77.0298 155.919 70.6258 146.614 65.4758 130.403C64.6858 127.919 65.3388 125.202 67.1788 123.351C69.3808 121.137 72.5668 117.828 75.9048 114.009L75.9118 114.004C77.9318 111.692 80.0088 109.195 81.9578 106.64C83.5878 104.505 85.1248 102.33 86.4698 100.189L86.9568 99.4C86.9568 99.4 67.0538 113.749 60.2168 125.047C53.3808 136.347 79.8388 167.7 79.8388 167.7Z" fill="black"/>
<path d="M81.8496 163.83H85.6706C87.0216 163.83 88.3306 164.301 89.3726 165.162L94.3346 169.266C94.8166 169.665 95.1366 170.227 95.2336 170.845L95.6346 173.409C95.7176 173.943 95.4466 174.47 94.9626 174.712C94.3446 175.021 93.5936 174.766 93.2906 174.145L92.0446 171.589L89.6956 170.645L95.7496 179.696C96.2596 180.459 96.0576 181.49 95.2976 182.004C94.6176 182.463 93.7046 182.36 93.1446 181.759L85.2746 173.315L92.4326 184.347C92.9506 185.145 92.7526 186.21 91.9816 186.768C91.2056 187.331 90.1246 187.181 89.5296 186.43L81.8496 176.723L87.6176 186.016C88.0466 186.707 87.7266 187.617 86.9596 187.887C86.4476 188.068 85.8766 187.903 85.5386 187.478L78.4416 178.526C76.5266 176.111 75.1716 173.301 74.4746 170.299C74.4746 170.299 76.5596 164.475 81.8496 163.83Z" fill="#F7A67F"/>
<path d="M97.6026 320.665C97.6026 320.665 98.3346 329.097 97.7546 334.603C97.6286 335.802 96.9636 336.877 95.9636 337.551C92.5606 339.846 84.2276 345.514 78.9326 349.52C72.1476 354.653 63.6136 347.777 69.4596 339.97C77.9826 328.59 81.8906 329.11 83.8526 321.202C83.8526 321.202 86.0176 317.201 97.6026 320.665Z" fill="#001A2E"/>
<path d="M133.799 320.665C133.799 320.665 133.067 329.097 133.647 334.603C133.773 335.802 134.438 336.877 135.438 337.551C138.841 339.846 147.174 345.514 152.469 349.52C159.254 354.653 167.788 347.777 161.942 339.97C153.419 328.59 149.511 329.11 147.549 321.202C147.549 321.202 145.383 317.201 133.799 320.665Z" fill="#001A2E"/>
<path d="M135.64 23.208C135.64 23.208 129.439 22.34 115.439 21.761C101.441 22.339 97.7139 23.208 97.7139 23.208C97.7139 21.003 97.9139 19.028 98.2719 17.258H98.2699C98.2699 17.258 100.379 5.68999 105.277 3.85499C105.277 3.85499 106.692 3.488 108.066 4.114C112.5 1.972 116.676 2.04899 116.676 2.04899C116.676 2.04899 120.845 1.972 125.275 4.109C126.645 3.492 128.051 3.85599 128.051 3.85599C131.91 5.30099 134.036 12.78 134.765 15.895C134.769 15.902 134.769 15.908 134.77 15.915C135.322 18.013 135.64 20.427 135.64 23.208Z" fill="#F13554"/>
<path d="M120.297 18.664H112.031C111.038 11.173 113.588 3.473 114.224 1.712C114.346 1.371 114.523 1.048 114.764 0.775002C115.448 1.54972e-06 116.163 0 116.163 0C116.163 0 116.879 1.54972e-06 117.564 0.775002C117.805 1.048 117.979 1.371 118.104 1.712C118.74 3.473 121.291 11.173 120.297 18.664Z" fill="#CA1F42"/>
<path d="M125.275 4.108C125.275 4.108 124.113 5.599 123.838 7.664C123.838 7.664 123.192 5.49 124.171 3.617L125.275 4.108Z" fill="#CA1F42"/>
<path d="M108.066 4.114C108.066 4.114 109.24 5.599 109.515 7.664C109.515 7.664 110.161 5.49 109.182 3.617C108.861 3.744 108.475 3.92 108.066 4.114Z" fill="#CA1F42"/>
<path d="M138.378 22.462L132.757 27.691C126.397 24.161 116.164 24.082 116.164 24.082C116.164 24.082 105.93 24.161 99.5707 27.691L93.9497 22.462C93.9497 22.462 99.0867 18.105 116.164 18.105C135.902 18.106 138.378 22.462 138.378 22.462Z" fill="#CA1F42"/>
<path d="M85.9558 204.832L84.0288 239.842L81.9478 239.469L79.1108 238.958L81.3398 206.147L84.3238 205.298L85.9558 204.832Z" fill="#EA3A4B"/>
<path d="M85.9557 204.832L84.0287 239.842L81.9478 239.469L84.3237 205.298L85.9557 204.832Z" fill="#C22D2A"/>
<path d="M145.448 204.832L147.376 239.842L149.457 239.469L152.294 238.958L150.064 206.147L147.081 205.298L145.448 204.832Z" fill="#EA3A4B"/>
<path d="M145.448 204.832L147.311 239.854L149.457 239.469L147.081 205.298L145.448 204.832Z" fill="#C22D2A"/>
<path opacity="0.2" d="M117.59 66.405H115.427V163.83H117.59V66.405Z" fill="black"/>
<path d="M102.871 289.479C102.541 290.855 102.168 292.268 101.745 293.72C101.745 293.725 101.742 293.73 101.742 293.735C101.306 295.224 100.822 296.756 100.278 298.321L99.8138 302.345H83.7538L83.4688 289.48H102.871V289.479Z" fill="#ECB719"/>
<path d="M147.932 289.479L147.65 302.344H131.587L131.123 298.32C130.077 295.309 129.246 292.432 128.586 289.703C128.568 289.627 128.551 289.552 128.533 289.479H147.932Z" fill="#ECB719"/>
<path d="M91.189 67.837L94.213 122.193L103.022 123.281L99.121 66.049C99.121 66.049 94.044 64.962 91.189 67.837Z" fill="#ECB719"/>
<path d="M141.059 67.837L138.036 122.193L129.227 123.281L133.128 66.049C133.128 66.049 138.203 64.962 141.059 67.837Z" fill="#ECB719"/>
</svg>
