<svg width="1111" height="1593" viewBox="0 0 1111 1593" fill="none" xmlns="http://www.w3.org/2000/svg">
<path d="M555.5 796.596L520.781 837.238C520.781 837.238 461.528 907.396 401.812 998.358C342.095 1089.32 277.75 1198.18 277.75 1302.69C277.75 1379.69 307.013 1453.53 359.101 1507.97C411.189 1562.41 481.836 1593 555.5 1593C629.164 1593 699.811 1562.41 751.899 1507.97C803.987 1453.53 833.25 1379.69 833.25 1302.69C833.25 1198.18 768.905 1089.32 709.188 998.358C649.472 907.396 590.219 837.238 590.219 837.238L555.5 796.596ZM555.5 948.038C575.868 973.198 594.385 994.003 633.27 1053.03C689.283 1138.19 740.667 1246.57 740.667 1302.69C740.667 1410.11 658.268 1496.23 555.5 1496.23C452.732 1496.23 370.333 1410.11 370.333 1302.69C370.333 1246.57 421.717 1138.19 477.73 1053.03C516.615 994.003 535.132 973.198 555.5 948.038Z" fill="#0C359E"/>
<path d="M555.5 0L486.062 81.2855C486.062 81.2855 367.556 221.6 248.123 403.524C128.691 585.449 0 803.178 0 1012.2C0 1166.19 58.5257 1313.87 162.702 1422.75C266.879 1531.64 408.172 1592.81 555.5 1592.81C702.828 1592.81 844.121 1531.64 948.298 1422.75C1052.47 1313.87 1111 1166.19 1111 1012.2C1111 803.178 982.309 585.449 862.877 403.524C743.444 221.6 624.937 81.2855 624.937 81.2855L555.5 0ZM555.5 0C596.237 50.3196 633.27 394.815 711.04 512.873C823.066 683.185 1019.34 899.946 1019.34 1012.2C1019.34 1227.02 761.035 1592.81 555.5 1592.81C349.965 1592.81 89.4355 1227.02 89.4355 1012.2C89.4355 899.946 287.934 683.185 399.96 512.873C477.73 394.815 514.763 50.3196 555.5 0Z" fill="#0C359E"/>
</svg>
